<?xml version="1.0" standalone="no"?>
<!DOCTYPE svg PUBLIC "-//W3C//DTD SVG 20010904//EN"
 "http://www.w3.org/TR/2001/REC-SVG-20010904/DTD/svg10.dtd">
<svg version="1.0" xmlns="http://www.w3.org/2000/svg"
 width="460.000000pt" height="460.000000pt" viewBox="0 0 460.000000 460.000000"
 preserveAspectRatio="xMidYMid meet">

<g transform="translate(0.000000,460.000000) scale(0.100000,-0.100000)"
fill="#000000" stroke="none">
<path d="M0 2300 l0 -2300 2300 0 2300 0 0 2300 0 2300 -2300 0 -2300 0 0
-2300z m1840 1399 c-10 -19 -10 -20 9 -10 13 8 28 8 46 1 17 -7 24 -7 20 0 -6
9 25 15 50 10 5 -1 24 -2 42 -3 17 -2 35 -5 38 -9 4 -4 22 -4 41 -1 23 4 34 2
34 -7 0 -8 8 -10 22 -7 38 10 138 -4 138 -19 0 -8 -5 -14 -12 -14 -6 0 -8 -3
-5 -6 4 -4 14 -1 23 6 12 10 17 11 23 2 5 -9 17 -7 45 7 66 34 154 47 163 24
4 -9 9 -10 17 -4 8 7 21 5 40 -4 15 -8 32 -13 36 -10 5 3 11 -1 14 -7 5 -10 7
-10 12 0 4 9 12 6 27 -11 12 -14 39 -28 59 -31 20 -4 38 -11 40 -16 2 -5 19
-11 38 -13 21 -3 36 -10 38 -20 3 -14 29 -28 62 -31 27 -4 65 -23 84 -45 16
-18 17 -23 5 -38 -11 -15 -11 -16 1 -5 22 19 33 14 26 -13 -6 -23 0 -29 24
-27 5 0 6 -248 1 -258 -2 -3 -4 -34 -6 -69 -1 -35 -7 -66 -12 -70 -6 -3 -9
-32 -8 -63 2 -48 0 -58 -14 -58 -14 -1 -14 -2 -1 -13 9 -7 14 -19 12 -28 -1
-8 11 -26 28 -39 31 -24 41 -60 15 -60 -18 0 -18 1 -4 -38 6 -18 15 -29 20
-26 5 3 9 -11 9 -30 0 -21 5 -35 11 -34 14 4 18 -61 8 -122 -4 -25 -13 -78
-19 -118 -7 -43 -18 -76 -25 -79 -8 -2 -12 -10 -9 -18 3 -7 -2 -19 -10 -28 -9
-9 -16 -26 -16 -39 0 -13 -13 -42 -28 -64 -29 -40 -52 -104 -52 -143 0 -12 -9
-40 -19 -61 -11 -22 -15 -42 -10 -46 14 -8 -9 -45 -57 -90 -24 -22 -44 -45
-44 -49 0 -12 -61 -105 -87 -133 -28 -30 -49 -71 -58 -112 -4 -16 -11 -30 -16
-30 -5 0 -9 -9 -9 -19 0 -30 -47 -79 -83 -87 -29 -6 -61 -26 -109 -68 -9 -8
-42 -19 -72 -25 -45 -8 -64 -7 -98 5 -24 9 -66 16 -94 18 -33 1 -64 10 -90 26
-21 14 -52 25 -69 26 -81 3 -81 4 -63 18 15 11 16 15 3 32 -8 10 -15 29 -15
42 0 16 -6 22 -22 23 -22 0 -22 1 -3 9 17 7 17 9 3 9 -10 1 -34 18 -55 39 -21
21 -59 49 -85 62 -27 13 -48 29 -48 36 0 8 -9 18 -21 24 -11 7 -25 25 -31 41
-5 16 -14 29 -19 29 -5 0 -9 12 -9 26 0 15 -12 38 -30 56 -16 16 -30 34 -30
39 0 8 -8 26 -29 65 -3 6 -19 30 -35 54 -22 34 -28 54 -27 92 0 28 -4 48 -10
48 -6 0 -9 6 -6 13 2 6 -4 28 -14 47 -10 19 -20 45 -22 57 -1 11 -8 27 -14 35
-6 7 -9 25 -7 41 1 15 -1 25 -6 22 -5 -3 -12 7 -15 22 -3 15 -9 42 -14 59 -4
16 -4 40 0 52 7 17 5 22 -9 22 -16 1 -16 2 1 14 10 8 18 22 18 33 1 10 0 66
-1 125 -1 59 2 112 6 119 4 7 6 57 5 112 -2 61 2 103 8 111 9 10 8 15 -4 20
-8 3 -15 10 -15 17 0 6 7 8 16 5 14 -5 15 -4 4 9 -11 13 -10 19 5 35 10 11 15
26 11 36 -3 9 -2 22 2 28 10 12 10 12 15 106 2 51 7 66 20 68 12 3 15 8 8 20
-5 9 -5 26 -1 37 4 11 6 36 4 55 -4 28 -2 31 5 15 8 -15 9 -10 5 21 -4 30 -2
45 10 57 9 8 16 20 16 26 0 5 14 18 30 28 17 9 30 21 30 25 0 4 8 8 17 8 9 0
13 3 10 7 -11 10 13 33 34 33 11 0 19 7 20 18 0 9 3 12 5 5 4 -8 12 -8 32 3
15 8 36 14 47 14 11 1 36 9 55 19 19 11 36 19 38 20 1 1 -2 -8 -8 -20z m-433
-746 c-3 -10 -5 -2 -5 17 0 19 2 27 5 18 2 -10 2 -26 0 -35z m-106 -323 c19
-16 40 -30 47 -30 8 0 12 -18 12 -55 0 -37 -4 -55 -12 -56 -10 0 -10 -2 0 -6
13 -5 17 -33 4 -33 -10 0 -33 -61 -26 -71 3 -5 -1 -19 -8 -31 -23 -43 0 -110
41 -121 23 -6 30 18 9 26 -10 4 -10 7 0 18 6 7 12 27 13 44 l1 30 9 -30 c5
-16 11 -47 13 -67 2 -20 8 -42 12 -49 7 -12 33 -123 34 -146 1 -36 -106 11
-160 69 -58 63 -160 294 -160 363 0 147 86 220 171 145z m2025 -43 c33 -30 36
-39 41 -97 4 -46 0 -78 -12 -110 -9 -25 -30 -87 -46 -139 -37 -112 -80 -170
-156 -207 -49 -24 -93 -26 -93 -4 0 36 26 119 43 138 19 20 19 22 3 22 -15 0
-17 6 -11 43 9 57 25 107 35 107 4 0 11 -10 15 -22 6 -18 9 -11 15 32 5 30 5
59 0 65 -12 15 -22 100 -15 128 5 17 22 31 63 50 31 14 63 26 70 27 7 0 28
-15 48 -33z m-1929 -79 c-3 -8 -6 -5 -6 6 -1 11 2 17 5 13 3 -3 4 -12 1 -19z
m613 -1183 c7 -9 8 -15 2 -15 -5 0 -12 7 -16 15 -3 8 -4 15 -2 15 2 0 9 -7 16
-15z m-210 -40 c0 -16 34 -38 43 -29 3 3 42 -30 86 -75 79 -80 101 -94 101
-67 0 7 6 19 14 26 8 6 12 19 9 27 -5 12 -2 15 10 10 16 -6 22 3 18 26 -1 5 9
5 21 1 13 -4 82 -8 154 -9 71 -1 135 -5 142 -9 7 -4 12 -2 12 3 0 6 7 11 15
11 23 0 18 -19 -7 -30 -23 -9 -23 -9 2 -10 l25 -1 -22 -16 c-13 -8 -23 -22
-23 -30 0 -7 -7 -16 -16 -20 -13 -5 -13 -7 -2 -14 9 -6 7 -9 -9 -9 -13 0 -23
-6 -23 -14 0 -7 -10 -20 -22 -28 -19 -13 -21 -18 -9 -31 10 -12 27 -15 77 -13
49 3 64 0 64 -10 0 -24 14 -15 28 16 8 17 19 30 25 30 7 0 21 18 31 40 11 22
22 40 26 40 4 0 22 29 41 65 28 54 37 65 59 65 17 0 21 3 12 9 -16 10 -1 24
37 36 17 5 22 4 19 -6 -3 -8 -13 -13 -22 -13 -9 1 -16 -2 -16 -7 0 -5 9 -9 20
-9 25 0 25 -9 3 -26 -11 -8 -13 -13 -6 -14 7 0 22 -8 32 -17 16 -13 18 -21 9
-36 -5 -11 -8 -32 -6 -47 3 -20 1 -27 -9 -23 -9 4 -11 0 -7 -13 4 -11 4 -16
-1 -12 -10 9 -34 -21 -35 -43 0 -21 -73 -116 -154 -199 -69 -72 -150 -137
-210 -168 l-38 -21 -65 35 c-36 20 -79 47 -96 62 -76 67 -197 181 -237 227
-25 28 -55 59 -67 70 -11 11 -46 53 -76 93 -47 63 -54 78 -52 110 4 37 30 66
52 58 6 -3 15 4 18 15 7 21 25 17 25 -6z m545 -275 c3 -5 -1 -10 -10 -10 -9 0
-13 5 -10 10 3 6 8 10 10 10 2 0 7 -4 10 -10z m-3 -575 c-5 -29 -5 -29 -21 3
-10 19 -9 22 7 22 15 0 18 -5 14 -25z m-102 -24 c0 -5 3 -17 7 -27 4 -11 3
-15 -4 -11 -14 9 -24 47 -12 47 5 0 9 -4 9 -9z"/>
<path d="M1930 3680 c0 -5 5 -10 11 -10 5 0 7 5 4 10 -3 6 -8 10 -11 10 -2 0
-4 -4 -4 -10z"/>
<path d="M1480 3280 c0 -5 5 -10 11 -10 5 0 7 5 4 10 -3 6 -8 10 -11 10 -2 0
-4 -4 -4 -10z"/>
<path d="M1685 2971 c-3 -6 -12 -8 -19 -5 -29 11 -94 -37 -110 -80 -6 -17 -3
-18 26 -11 18 4 53 9 78 11 25 2 56 6 70 8 14 2 33 5 43 5 11 1 15 6 11 13 -5
8 5 9 34 5 29 -3 40 -2 35 6 -4 7 0 8 13 2 10 -4 34 -9 52 -11 26 -3 32 0 32
16 0 32 -34 42 -138 38 -53 -1 -102 1 -109 5 -6 4 -14 3 -18 -2z m20 -41 c3
-5 1 -10 -4 -10 -6 0 -11 5 -11 10 0 6 2 10 4 10 3 0 8 -4 11 -10z"/>
<path d="M2726 2953 c-1 -1 -26 -3 -56 -4 -70 -3 -91 -9 -83 -22 4 -6 0 -8
-10 -4 -21 8 -35 -32 -16 -44 13 -7 25 -6 84 8 17 4 18 2 5 -7 -12 -10 -11
-11 7 -7 33 7 166 -11 173 -23 5 -8 15 -8 34 0 20 7 25 7 20 -2 -5 -8 0 -9 17
-5 13 4 32 7 42 7 15 0 16 2 5 14 -7 8 -21 25 -32 39 -23 32 -76 52 -139 52
-27 0 -50 -1 -51 -2z m29 -23 c3 -5 1 -10 -4 -10 -6 0 -11 5 -11 10 0 6 2 10
4 10 3 0 8 -4 11 -10z"/>
<path d="M1434 2872 c2 -40 6 -76 9 -79 8 -8 27 6 27 20 0 8 -3 8 -9 -1 -7
-11 -9 -11 -14 2 -4 9 -4 22 -2 29 3 6 1 32 -4 57 -9 41 -10 38 -7 -28z"/>
<path d="M1972 2920 c0 -14 2 -19 5 -12 2 6 2 18 0 25 -3 6 -5 1 -5 -13z"/>
<path d="M2996 2792 c-3 -6 -1 -14 5 -17 15 -10 25 3 12 16 -7 7 -13 7 -17 1z"/>
<path d="M1730 2780 c-8 -5 -10 -10 -5 -10 6 0 17 5 25 10 8 5 11 10 5 10 -5
0 -17 -5 -25 -10z"/>
<path d="M1670 2759 c-38 -15 -69 -49 -63 -67 4 -10 2 -13 -5 -8 -6 3 -16 -2
-22 -13 -11 -21 1 -37 19 -26 6 3 18 -3 28 -14 10 -10 28 -21 41 -25 12 -3 31
-9 42 -12 14 -4 20 -1 20 10 0 9 -6 16 -14 16 -8 0 -17 11 -20 25 -4 14 -11
23 -16 20 -6 -3 -10 -2 -10 4 0 5 9 12 19 16 11 3 22 12 25 20 3 8 14 15 25
15 16 0 19 -7 19 -32 -1 -38 31 -68 73 -68 34 0 79 44 79 77 0 21 2 22 20 11
28 -18 52 -70 37 -80 -7 -5 -3 -8 11 -8 20 0 22 4 16 23 -28 89 -158 140 -264
103 -49 -17 -64 -13 -34 9 22 17 10 18 -26 4z"/>
<path d="M2586 2751 c-4 -5 3 -7 14 -4 23 6 26 13 6 13 -8 0 -17 -4 -20 -9z"/>
<path d="M2765 2753 c37 -9 41 -24 5 -16 -115 26 -218 -5 -259 -77 -26 -46
-26 -49 -1 -43 13 3 20 14 20 28 0 14 12 33 27 45 l28 22 8 -34 c10 -41 50
-78 83 -78 32 0 74 42 74 75 0 30 11 32 35 5 15 -17 32 -70 17 -56 -2 3 -13
-4 -25 -15 -11 -10 -29 -19 -39 -19 -10 0 -18 -4 -18 -9 0 -12 74 -23 78 -11
2 6 8 8 12 5 5 -3 24 3 43 14 19 11 45 21 58 23 20 2 23 8 21 33 -2 17 -12 40
-23 51 -22 23 -120 65 -147 63 -12 -1 -12 -3 3 -6z"/>
<path d="M2106 2104 c-9 -8 -14 -20 -11 -25 11 -17 85 -8 85 10 0 7 -44 31
-55 31 -2 0 -11 -7 -19 -16z"/>
<path d="M2358 2109 c-22 -12 -23 -25 -2 -33 26 -10 64 4 64 25 0 21 -33 26
-62 8z"/>
<path d="M1520 1999 c0 -5 5 -7 10 -4 6 3 10 8 10 11 0 2 -4 4 -10 4 -5 0 -10
-5 -10 -11z"/>
<path d="M2530 1824 c0 -8 7 -17 15 -20 8 -4 12 -10 9 -15 -3 -5 -1 -9 5 -9 5
0 12 6 15 13 3 6 3 2 0 -10 -4 -18 -1 -23 15 -23 12 0 21 -4 21 -9 0 -18 -17
-20 -36 -6 -10 8 -28 15 -39 15 -11 0 -47 14 -80 30 -59 30 -102 39 -90 20 4
-6 -6 -10 -24 -10 -42 0 -50 -20 -9 -21 20 -1 10 -5 -27 -9 -33 -5 -64 -6 -68
-3 -4 3 -16 -1 -25 -8 -9 -7 -14 -10 -10 -5 8 10 -15 36 -31 36 -6 0 -11 5
-11 10 0 6 15 8 40 4 50 -8 55 11 5 20 -29 6 -47 1 -98 -26 -34 -18 -74 -41
-88 -51 -14 -10 -32 -19 -40 -21 -8 -1 -25 -6 -37 -10 -23 -8 -23 -8 11 -32
33 -22 67 -24 67 -4 0 13 41 24 76 21 18 -1 34 2 38 7 7 12 240 14 270 2 14
-5 27 -5 33 1 6 6 16 2 28 -11 25 -28 60 -25 109 8 37 25 74 33 62 13 -3 -4 1
-8 9 -8 8 0 13 3 10 5 -3 3 0 11 6 18 12 14 -9 56 -26 51 -5 -2 -16 4 -25 14
-8 9 -30 22 -47 27 -27 9 -33 8 -33 -4z"/>
<path d="M2285 1819 c-10 -15 3 -25 16 -12 6 6 18 9 25 6 8 -3 14 0 14 6 0 14
-47 14 -55 0z"/>
<path d="M1911 1763 c-7 -16 -8 -30 -3 -35 6 -6 14 3 21 23 13 38 13 39 3 39
-5 0 -14 -12 -21 -27z"/>
<path d="M2375 1569 c-16 -3 -72 -7 -122 -8 -73 -1 -93 -4 -93 -15 0 -11 19
-15 78 -16 118 -3 137 -1 166 14 34 17 14 35 -29 25z m-178 -25 c-3 -3 -12 -4
-19 -1 -8 3 -5 6 6 6 11 1 17 -2 13 -5z"/>
<path d="M2172 1495 c-11 -13 -9 -15 10 -15 23 0 63 20 41 20 -6 0 -17 2 -25
5 -7 2 -19 -2 -26 -10z"/>
<path d="M1203 2605 c-30 -21 -48 -79 -34 -113 5 -15 15 -55 22 -89 6 -35 18
-71 26 -80 8 -10 12 -12 8 -5 -4 7 -11 55 -16 108 -7 78 -6 102 7 134 9 22 20
40 26 40 5 0 6 5 3 10 -8 14 -17 13 -42 -5z"/>
<path d="M1235 2280 c8 -28 47 -91 53 -85 3 2 -10 28 -27 57 -18 29 -29 42
-26 28z"/>
<path d="M3276 2548 c4 -7 13 -20 21 -29 8 -9 15 -35 16 -58 2 -50 12 -52 27
-6 10 31 9 39 -10 70 -13 21 -30 35 -41 35 -13 0 -18 -4 -13 -12z"/>
<path d="M3284 2325 c-9 -63 1 -67 13 -5 6 27 7 50 2 50 -4 0 -11 -20 -15 -45z"/>
<path d="M3171 2241 c0 -8 -8 -23 -18 -33 -17 -19 -8 -24 15 -9 8 5 12 19 9
32 -2 13 -5 18 -6 10z"/>
<path d="M3271 2234 c0 -11 3 -14 6 -6 3 7 2 16 -1 19 -3 4 -6 -2 -5 -13z"/>
</g>
</svg>
